<?xml version="1.0" encoding="UTF-8"?>
<svg width="35px" height="35px" viewBox="0 0 35 35" version="1.1" xmlns="http://www.w3.org/2000/svg" xmlns:xlink="http://www.w3.org/1999/xlink">
    <path d="M13.125,30.625 C13.125,31.4270833 13.78125,32.0833333 14.5833333,32.0833333 L20.4166667,32.0833333 C21.21875,32.0833333 21.875,31.4270833 21.875,30.625 L21.875,29.1666667 L13.125,29.1666667 L13.125,30.625 Z M17.5,2.91666667 C11.8708333,2.91666667 7.29166667,7.49583333 7.29166667,13.125 C7.29166667,16.5958333 9.02708333,19.64375 11.6666667,21.4958333 L11.6666667,24.7916667 C11.6666667,25.59375 12.3229167,26.25 13.125,26.25 L21.875,26.25 C22.6770833,26.25 23.3333333,25.59375 23.3333333,24.7916667 L23.3333333,21.4958333 C25.9729167,19.64375 27.7083333,16.5958333 27.7083333,13.125 C27.7083333,7.49583333 23.1291667,2.91666667 17.5,2.91666667 Z M21.65625,19.1041667 L20.4166667,19.9791667 L20.4166667,23.3333333 L14.5833333,23.3333333 L14.5833333,19.9791667 L13.34375,19.1041667 C11.375,17.7333333 10.2083333,15.5020833 10.2083333,13.125 C10.2083333,9.1 13.475,5.83333333 17.5,5.83333333 C21.525,5.83333333 24.7916667,9.1 24.7916667,13.125 C24.7916667,15.5020833 23.625,17.7333333 21.65625,19.1041667 Z" id="Shape" fill="currentColor" fill-rule="nonzero"></path>
</svg>