<?xml version="1.0" encoding="UTF-8"?>
<svg width="35px" height="35px" viewBox="0 0 35 35" version="1.1" xmlns="http://www.w3.org/2000/svg" xmlns:xlink="http://www.w3.org/1999/xlink">
    <path d="M25.7541667,7.88958333 L27.0958333,9.23125 L23.1729167,13.1541667 L21.83125,11.8125 L25.7541667,7.88958333 M25.76875,4.375 C25.3895833,4.375 25.025,4.52083333 24.7333333,4.79791667 L20.1833333,9.34791667 L17.36875,6.5625 L15.3125,8.61875 L17.3833333,10.6895833 L4.375,23.6979167 L4.375,30.625 L11.3020833,30.625 L24.3104167,17.6166667 L26.38125,19.6875 L28.4375,17.63125 L25.6375,14.83125 L30.1875,10.28125 C30.7708333,9.69791667 30.7708333,8.77916667 30.2020833,8.21041667 L26.7895833,4.79791667 C26.4979167,4.52083333 26.1333333,4.375 25.76875,4.375 L25.76875,4.375 Z M10.0916667,27.7083333 L7.29166667,24.9083333 L19.0458333,13.1541667 L21.8458333,15.9541667 L10.0916667,27.7083333 Z" id="Shape" fill="currentColor" fill-rule="nonzero"></path>
</svg>