<?xml version="1.0" encoding="UTF-8"?>
<svg width="35px" height="35px" viewBox="0 0 35 35" version="1.1" xmlns="http://www.w3.org/2000/svg" xmlns:xlink="http://www.w3.org/1999/xlink">
    <path d="M21.875,18.9583333 L21.875,7.29166667 C21.875,4.87083333 19.9208333,2.91666667 17.5,2.91666667 C15.0791667,2.91666667 13.125,4.87083333 13.125,7.29166667 L13.125,18.9583333 C11.3604167,20.2854167 10.2083333,22.4145833 10.2083333,24.7916667 C10.2083333,28.8166667 13.475,32.0833333 17.5,32.0833333 C21.525,32.0833333 24.7916667,28.8166667 24.7916667,24.7916667 C24.7916667,22.4145833 23.6395833,20.2854167 21.875,18.9583333 Z M16.0416667,7.29166667 C16.0416667,6.48958333 16.6979167,5.83333333 17.5,5.83333333 C18.3020833,5.83333333 18.9583333,6.48958333 18.9583333,7.29166667 L17.5,7.29166667 L17.5,8.75 L18.9583333,8.75 L18.9583333,11.6666667 L17.5,11.6666667 L17.5,13.125 L18.9583333,13.125 L18.9583333,19.0853388 L16.0416667,19.0853388 L16.0416667,7.29166667 Z" id="Shape" fill="currentColor" fill-rule="nonzero"></path>
</svg>