<?xml version="1.0" encoding="UTF-8"?>
<svg width="35px" height="35px" viewBox="0 0 35 35" version="1.1" xmlns="http://www.w3.org/2000/svg" xmlns:xlink="http://www.w3.org/1999/xlink">
    <path d="M21.1458333,24.7916667 C21.1458333,27.1979167 19.1770833,29.1666667 16.7708333,29.1666667 C14.3645833,29.1666667 12.3958333,27.1979167 12.3958333,24.7916667 L15.3125,24.7916667 C15.3125,25.59375 15.96875,26.25 16.7708333,26.25 C17.5729167,26.25 18.2291667,25.59375 18.2291667,24.7916667 C18.2291667,23.9895833 17.5729167,23.3333333 16.7708333,23.3333333 L2.91666667,23.3333333 L2.91666667,20.4166667 L16.7708333,20.4166667 C19.1770833,20.4166667 21.1458333,22.3854167 21.1458333,24.7916667 Z M27.7083333,9.47916667 C27.7083333,6.66458333 25.41875,4.375 22.6041667,4.375 C19.7895833,4.375 17.5,6.66458333 17.5,9.47916667 L20.4166667,9.47916667 C20.4166667,8.26875 21.39375,7.29166667 22.6041667,7.29166667 C23.8145833,7.29166667 24.7916667,8.26875 24.7916667,9.47916667 C24.7916667,10.6895833 23.8145833,11.6666667 22.6041667,11.6666667 L2.91666667,11.6666667 L2.91666667,14.5833333 L22.6041667,14.5833333 C25.41875,14.5833333 27.7083333,12.29375 27.7083333,9.47916667 Z M26.9791667,16.0416667 L2.91666667,16.0416667 L2.91666667,18.9583333 L26.9791667,18.9583333 C28.1895833,18.9583333 29.1666667,19.9354167 29.1666667,21.1458333 C29.1666667,22.35625 28.1895833,23.3333333 26.9791667,23.3333333 L26.9791667,26.25 C29.79375,26.25 32.0833333,23.9604167 32.0833333,21.1458333 C32.0833333,18.33125 29.79375,16.0416667 26.9791667,16.0416667 Z" id="Shape" fill="currentColor" fill-rule="nonzero"></path>
</svg>