<?xml version="1.0" encoding="UTF-8"?>
<svg width="35px" height="35px" viewBox="0 0 35 35" version="1.1" xmlns="http://www.w3.org/2000/svg" xmlns:xlink="http://www.w3.org/1999/xlink">
    <path d="M16.0416667,17.5 L16.0416667,8.75 C16.0416667,6.32916667 14.0875,4.375 11.6666667,4.375 C9.24583333,4.375 7.29166667,6.32916667 7.29166667,8.75 L7.29166667,17.5 C5.52708333,18.8270833 4.375,20.95625 4.375,23.3333333 C4.375,24.9666667 4.92916667,26.4541667 5.83333333,27.6645833 L5.83333333,27.7083333 L5.8625,27.7083333 C7.18958333,29.4729167 9.28958333,30.625 11.6666667,30.625 C14.04375,30.625 16.1291667,29.4729167 17.4708333,27.7083333 L17.5,27.7083333 L17.5,27.6645833 C18.4041667,26.4541667 18.9583333,24.9666667 18.9583333,23.3333333 C18.9583333,20.95625 17.80625,18.8270833 16.0416667,17.5 Z M7.29166667,23.3333333 C7.29166667,21.9625 7.94791667,20.65 9.04166667,19.8333333 L10.2083333,18.9583333 L10.2083333,8.75 C10.2083333,7.94791667 10.8645833,7.29166667 11.6666667,7.29166667 C12.46875,7.29166667 13.125,7.94791667 13.125,8.75 L13.125,18.9583333 L14.2916667,19.8333333 C15.3854167,20.6645833 16.0416667,21.9625 16.0416667,23.3333333 L7.29166667,23.3333333 Z" id="Shape" fill="currentColor" fill-rule="nonzero"></path>
    <path d="M25.5,4.25 C22.16875,7.09375 20.5,9.55 20.5,11.625 C20.5,14.7375 22.875,16.75 25.5,16.75 C28.125,16.75 30.5,14.7375 30.5,11.625 C30.5,9.55 28.83125,7.09375 25.5,4.25 Z M25.5,15.5 C23.40625,15.5 21.75,13.89375 21.75,11.625 C21.75,10.1625 22.96875,8.225 25.5,5.9125 C28.03125,8.225 29.25,10.15625 29.25,11.625 C29.25,13.89375 27.59375,15.5 25.5,15.5 Z M22.89375,11.75 C23.125,11.75 23.3125,11.9125 23.35625,12.1375 C23.6125,13.525 24.78125,14 25.63125,13.93125 C25.9,13.91875 26.125,14.13125 26.125,14.4 C26.125,14.65 25.925,14.85625 25.675,14.86875 C24.34375,14.95 22.7875,14.1875 22.43125,12.29375 C22.38125,12.0125 22.60625,11.75 22.89375,11.75 Z" id="Shape" fill="currentColor" fill-rule="nonzero"></path>
</svg>