<?xml version="1.0" encoding="UTF-8"?>
<svg width="35px" height="35px" viewBox="0 0 35 35" version="1.1" xmlns="http://www.w3.org/2000/svg" xmlns:xlink="http://www.w3.org/1999/xlink">
    <path d="M25.7541667,11.6666667 L17.5,3.42708333 L9.24583333,11.6666667 C6.97083333,13.9416667 5.83333333,16.975 5.83333333,19.8916667 C5.83333333,22.8083333 6.97083333,25.8854167 9.24583333,28.1604167 C11.5208333,30.4354167 14.5104167,31.5875 17.5,31.5875 C20.4895833,31.5875 23.4791667,30.4354167 25.7541667,28.1604167 C28.0291667,25.8854167 29.1666667,22.8083333 29.1666667,19.8916667 C29.1666667,16.975 28.0291667,13.9416667 25.7541667,11.6666667 Z M8.75,20.4166667 C8.76458333,17.5 9.65416667,15.6479167 11.3166667,14 L17.5,7.68541667 L23.6833333,14.0729167 C25.3458333,15.70625 26.2354167,17.5 26.25,20.4166667 L8.75,20.4166667 Z" id="Shape" fill="currentColor" fill-rule="nonzero"></path>
</svg>